<svg xmlns="http://www.w3.org/2000/svg" viewBox="0 0 600 400"><ellipse cx="300" cy="215" rx="190" ry="150" fill="#000" opacity=".12"/><circle cx="300" cy="200" r="165" fill="#fff"/><circle cx="300" cy="200" r="135" fill="none" stroke="#B8862F" stroke-width="3" opacity=".6"/><ellipse cx="300" cy="200" rx="110" ry="75" fill="#A0521C" transform="rotate(0 300 200)"/><ellipse cx="300" cy="190" rx="90" ry="58" fill="#C8742E" transform="rotate(0 300 190)"/><ellipse cx="230" cy="260" rx="22" ry="18" fill="#6B3A18" transform="rotate(0 230 260)"/><ellipse cx="370" cy="265" rx="22" ry="18" fill="#6B3A18" transform="rotate(0 370 265)"/><ellipse cx="359" cy="179" rx="10" ry="4" fill="#7CA36F" transform="rotate(86 359 179)"/><ellipse cx="384" cy="127" rx="10" ry="4" fill="#7CA36F" transform="rotate(71 384 127)"/><ellipse cx="365" cy="161" rx="10" ry="4" fill="#7CA36F" transform="rotate(178 365 161)"/><ellipse cx="293" cy="258" rx="10" ry="4" fill="#7CA36F" transform="rotate(146 293 258)"/><ellipse cx="355" cy="146" rx="10" ry="4" fill="#7CA36F" transform="rotate(167 355 146)"/><ellipse cx="264" cy="266" rx="10" ry="4" fill="#7CA36F" transform="rotate(68 264 266)"/><ellipse cx="282" cy="151" rx="10" ry="4" fill="#7CA36F" transform="rotate(16 282 151)"/><ellipse cx="333" cy="243" rx="10" ry="4" fill="#7CA36F" transform="rotate(22 333 243)"/></svg>