<svg xmlns="http://www.w3.org/2000/svg" viewBox="0 0 600 400"><rect width="600" height="400" fill="#3B2A20"/><circle cx="444" cy="286" r="8" fill="#F3D9A4" opacity=".35"/><circle cx="227" cy="16" r="8" fill="#F3D9A4" opacity=".35"/><circle cx="467" cy="385" r="8" fill="#F3D9A4" opacity=".35"/><circle cx="531" cy="147" r="7" fill="#F3D9A4" opacity=".35"/><circle cx="349" cy="116" r="9" fill="#F3D9A4" opacity=".35"/><circle cx="69" cy="301" r="5" fill="#F3D9A4" opacity=".35"/><circle cx="122" cy="125" r="3" fill="#F3D9A4" opacity=".35"/><circle cx="35" cy="355" r="7" fill="#F3D9A4" opacity=".35"/><circle cx="203" cy="220" r="7" fill="#F3D9A4" opacity=".35"/><circle cx="50" cy="6" r="6" fill="#F3D9A4" opacity=".35"/><circle cx="123" cy="87" r="7" fill="#F3D9A4" opacity=".35"/><circle cx="307" cy="122" r="8" fill="#F3D9A4" opacity=".35"/><circle cx="20" cy="268" r="7" fill="#F3D9A4" opacity=".35"/><circle cx="423" cy="27" r="7" fill="#F3D9A4" opacity=".35"/><ellipse cx="300" cy="215" rx="190" ry="150" fill="#000" opacity=".12"/><circle cx="300" cy="200" r="165" fill="#fff"/><circle cx="300" cy="200" r="135" fill="none" stroke="#B8862F" stroke-width="3" opacity=".6"/><rect x="160" y="150" width="280" height="100" rx="50" fill="#C98B3E"/><ellipse cx="300" cy="200" rx="90" ry="30" fill="#5B3A22" transform="rotate(0 300 200)"/><ellipse cx="300" cy="200" rx="70" ry="18" fill="#3E7A3A" transform="rotate(0 300 200)"/></svg>